<?xml version="1.0" encoding="UTF-8"?>
<!DOCTYPE svg PUBLIC "-//W3C//DTD SVG 1.1//EN" "http://www.w3.org/Graphics/SVG/1.1/DTD/svg11.dtd">
<!-- Creator: CorelDRAW -->
<svg xmlns="http://www.w3.org/2000/svg" xml:space="preserve" width="6.82666in" height="6.82666in" style="shape-rendering:geometricPrecision; text-rendering:geometricPrecision; image-rendering:optimizeQuality; fill-rule:evenodd; clip-rule:evenodd"
viewBox="0 0 6.82666 6.82666"
 xmlns:xlink="http://www.w3.org/1999/xlink">
 <defs>
  <style type="text/css">
   <![CDATA[
    .fil2 {fill:none}
    .fil0 {fill:#424242}
    .fil1 {fill:#FFFFFE;fill-rule:nonzero}
   ]]>
  </style>
 </defs>
 <rect class="fil0" width="6.82666" height="6.82666"/>
 <g id="Layer_x0020_1">
  <metadata id="CorelCorpID_0Corel-Layer"/>
  <path class="fil1" d="M4.79774 3.72278c0,-0.0589094 -0.0477598,-0.106669 -0.106669,-0.106669 -0.0589094,0 -0.106669,0.0477598 -0.106669,0.106669l0 0.944236c0,0.300461 -0.122992,0.573685 -0.321142,0.771831 -0.198146,0.19815 -0.47137,0.321142 -0.771831,0.321142l-3.93701e-006 0c-0.300457,0 -0.573681,-0.122996 -0.771827,-0.321142 -0.198146,-0.19815 -0.321142,-0.471374 -0.321142,-0.771831l0 -0.937602c0,-0.334988 0.0648976,-0.468921 0.126453,-0.595957 0.0658425,-0.135882 0.128469,-0.26513 0.128469,-0.552531l0 -0.803669c0,-0.0589094 -0.0477598,-0.106669 -0.106669,-0.106669 -0.0589094,0 -0.106669,0.0477598 -0.106669,0.106669l0 0.803669c0,0.239622 -0.0520669,0.347067 -0.106799,0.460028 -0.0721024,0.148803 -0.148122,0.305685 -0.148122,0.688461l0 0.937602c0,0.359343 0.146933,0.685949 0.383646,0.922665 0.236713,0.236713 0.563319,0.383646 0.922661,0.383646l3.93701e-006 0c0.359346,0 0.685953,-0.146929 0.922665,-0.383646 0.236717,-0.236713 0.383646,-0.563319 0.383646,-0.922665l0 -0.944236z"/>
  <path class="fil1" d="M4.79565 3.74278c0.0110433,-0.0577559 -0.0268268,-0.113539 -0.0845827,-0.124583 -0.0577559,-0.0110433 -0.113539,0.0268268 -0.124583,0.0845827 -0.0251772,0.130232 -0.0558346,0.241756 -0.0988189,0.341362 -0.0418701,0.0970276 -0.0955748,0.182976 -0.167736,0.264571 -0.0388898,0.0439488 -0.0347835,0.11111 0.00916535,0.15 0.0439488,0.0388898 0.11111,0.0347835 0.15,-0.00916535 0.0886181,-0.100205 0.154039,-0.20452 0.204406,-0.32124 0.0492638,-0.114154 0.084,-0.239909 0.11215,-0.385528z"/>
  <path class="fil1" d="M2.54347 1.66908c0.083185,0 0.158496,-0.0337126 0.212996,-0.0882126 0.0545,-0.0545 0.0882126,-0.129811 0.0882126,-0.212996 0,-0.083189 -0.0337126,-0.158496 -0.0882126,-0.212996 -0.0545,-0.0545 -0.129811,-0.0882126 -0.212996,-0.0882126 -0.083189,0 -0.158496,0.0337126 -0.212996,0.0882126 -0.0545,0.0545 -0.0882126,0.129807 -0.0882126,0.212996 0,0.083185 0.0337126,0.158496 0.0882126,0.212996 0.0545,0.0545 0.129807,0.0882126 0.212996,0.0882126zm0.363831 0.062622c-0.0931181,0.0931181 -0.22176,0.150717 -0.363831,0.150717 -0.142075,0 -0.270713,-0.0575984 -0.363831,-0.150717 -0.0931181,-0.0931181 -0.150717,-0.22176 -0.150717,-0.363831 0,-0.142075 0.0575984,-0.270713 0.150717,-0.363831 0.0931181,-0.0931181 0.221756,-0.150717 0.363831,-0.150717 0.142071,0 0.270713,0.0575984 0.363831,0.150717 0.0931181,0.0931181 0.150717,0.221756 0.150717,0.363831 0,0.142071 -0.0575984,0.270713 -0.150717,0.363831z"/>
  <rect class="fil2" width="6.82666" height="6.82666"/>
 </g>
</svg>
